<svg width="171" height="103" viewBox="0 0 171 103" fill="none" xmlns="http://www.w3.org/2000/svg">
<path d="M77.6562 45.873H58.5645V40.0137C58.5645 37.2793 58.3203 35.5378 57.832 34.7891C57.3438 34.0404 56.5299 33.666 55.3906 33.666C54.1536 33.666 53.2096 34.1706 52.5586 35.1797C51.9401 36.1888 51.6309 37.7188 51.6309 39.7695C51.6309 42.4062 51.9889 44.3919 52.7051 45.7266C53.3887 47.0612 55.3255 48.6725 58.5156 50.5605C67.6628 55.9967 73.4245 60.4564 75.8008 63.9395C78.1771 67.4225 79.3652 73.0378 79.3652 80.7852C79.3652 86.4167 78.6979 90.5671 77.3633 93.2363C76.0612 95.9056 73.5221 98.1517 69.7461 99.9746C65.9701 101.765 61.5755 102.66 56.5625 102.66C51.0612 102.66 46.3574 101.618 42.4512 99.5352C38.5775 97.4518 36.0384 94.7988 34.834 91.5762C33.6296 88.3535 33.0273 83.7799 33.0273 77.8555V72.6797H52.1191V82.2988C52.1191 85.2611 52.3796 87.1654 52.9004 88.0117C53.4538 88.8581 54.4141 89.2812 55.7812 89.2812C57.1484 89.2812 58.1576 88.7441 58.8086 87.6699C59.4922 86.5957 59.834 85.0007 59.834 82.8848C59.834 78.2298 59.1992 75.1862 57.9297 73.7539C56.6276 72.3216 53.4212 69.929 48.3105 66.5762C43.1999 63.1908 39.8145 60.7331 38.1543 59.2031C36.4941 57.6732 35.1107 55.5573 34.0039 52.8555C32.9297 50.1536 32.3926 46.7031 32.3926 42.5039C32.3926 36.4492 33.1576 32.0221 34.6875 29.2227C36.25 26.4232 38.7565 24.2422 42.207 22.6797C45.6576 21.0846 49.8242 20.2871 54.707 20.2871C60.0456 20.2871 64.5866 21.1497 68.3301 22.875C72.1061 24.6003 74.5964 26.7812 75.8008 29.418C77.0378 32.0221 77.6562 36.4655 77.6562 42.748V45.873Z" fill="white" fill-opacity="0.88"/>
<path d="M103.1 56.4199H82.543V42.6504C82.543 38.6465 82.3151 36.1562 81.8594 35.1797C81.4362 34.1706 80.4759 33.666 78.9785 33.666C77.2858 33.666 76.2116 34.2682 75.7559 35.4727C75.3001 36.6771 75.0723 39.2812 75.0723 43.2852V80.0039C75.0723 83.8451 75.3001 86.3516 75.7559 87.5234C76.2116 88.6953 77.237 89.2812 78.832 89.2812C80.362 89.2812 81.3548 88.6953 81.8105 87.5234C82.2988 86.3516 82.543 83.6009 82.543 79.2715V69.3594H103.1V72.4355C103.1 80.6061 102.514 86.4004 101.342 89.8184C100.202 93.2363 97.6471 96.2311 93.6758 98.8027C89.737 101.374 84.8704 102.66 79.0762 102.66C73.054 102.66 68.0898 101.57 64.1836 99.3887C60.2773 97.2077 57.6895 94.1966 56.4199 90.3555C55.1504 86.4818 54.5156 80.6712 54.5156 72.9238V49.8281C54.5156 44.1315 54.7109 39.8672 55.1016 37.0352C55.4922 34.1706 56.6478 31.4199 58.5684 28.7832C60.5215 26.1465 63.207 24.0794 66.625 22.582C70.0755 21.0521 74.0306 20.2871 78.4902 20.2871C84.5449 20.2871 89.5417 21.459 93.4805 23.8027C97.4193 26.1465 100.007 29.0762 101.244 32.5918C102.481 36.0749 103.1 41.5111 103.1 48.9004V56.4199Z" fill="white" fill-opacity="0.88"/>
<path d="M12.1449 56.3636C12.0384 55.464 11.6063 54.7656 10.8487 54.2685C10.0911 53.7713 9.16193 53.5227 8.06108 53.5227C7.25616 53.5227 6.55185 53.6529 5.94815 53.9134C5.35038 54.1738 4.88281 54.5318 4.54545 54.9876C4.21402 55.4433 4.0483 55.9612 4.0483 56.5412C4.0483 57.0265 4.16371 57.4438 4.39453 57.793C4.63127 58.1362 4.93312 58.4233 5.30007 58.6541C5.66702 58.879 6.05173 59.0655 6.45419 59.2134C6.85665 59.3555 7.22656 59.4709 7.56392 59.5597L9.41051 60.0568C9.884 60.1811 10.4107 60.3527 10.9908 60.5717C11.5767 60.7907 12.136 61.0896 12.6687 61.4684C13.2073 61.8413 13.6512 62.3207 14.0004 62.9066C14.3496 63.4925 14.5241 64.2116 14.5241 65.0639C14.5241 66.0464 14.2667 66.9342 13.7518 67.7273C13.2428 68.5204 12.497 69.1507 11.5146 69.6183C10.538 70.0858 9.35133 70.3196 7.95455 70.3196C6.65246 70.3196 5.52498 70.1095 4.57209 69.6893C3.62512 69.2691 2.87938 68.6831 2.33487 67.9315C1.79628 67.1798 1.49148 66.3068 1.42045 65.3125H3.69318C3.75237 65.9991 3.98319 66.5672 4.38565 67.017C4.79403 67.4609 5.30895 67.7924 5.9304 68.0114C6.55777 68.2244 7.23248 68.331 7.95455 68.331C8.79498 68.331 9.5496 68.1948 10.2184 67.9226C10.8872 67.6444 11.4169 67.2597 11.8075 66.7685C12.1982 66.2713 12.3935 65.6913 12.3935 65.0284C12.3935 64.4247 12.2248 63.9335 11.8874 63.5547C11.5501 63.1759 11.1062 62.8681 10.5558 62.6314C10.0053 62.3946 9.41051 62.1875 8.77131 62.0099L6.53409 61.3707C5.11364 60.9624 3.98911 60.3794 3.16051 59.6218C2.33191 58.8642 1.91761 57.8729 1.91761 56.6477C1.91761 55.6297 2.19283 54.742 2.74325 53.9844C3.2996 53.2209 4.04534 52.629 4.98047 52.2088C5.92152 51.7827 6.97206 51.5696 8.1321 51.5696C9.30398 51.5696 10.3456 51.7797 11.2571 52.1999C12.1686 52.6142 12.8906 53.1824 13.4233 53.9045C13.9619 54.6265 14.246 55.4463 14.2756 56.3636H12.1449ZM18.1441 70V51.8182H20.3458V59.9148H30.0404V51.8182H32.2421V70H30.0404V61.8679H20.3458V70H18.1441ZM51.9909 60.9091C51.9909 62.8267 51.6446 64.4839 50.9521 65.8807C50.2597 67.2775 49.3097 68.3546 48.1024 69.1122C46.895 69.8698 45.516 70.2486 43.9653 70.2486C42.4146 70.2486 41.0356 69.8698 39.8282 69.1122C38.6208 68.3546 37.6709 67.2775 36.9784 65.8807C36.286 64.4839 35.9397 62.8267 35.9397 60.9091C35.9397 58.9915 36.286 57.3343 36.9784 55.9375C37.6709 54.5407 38.6208 53.4635 39.8282 52.706C41.0356 51.9484 42.4146 51.5696 43.9653 51.5696C45.516 51.5696 46.895 51.9484 48.1024 52.706C49.3097 53.4635 50.2597 54.5407 50.9521 55.9375C51.6446 57.3343 51.9909 58.9915 51.9909 60.9091ZM49.8602 60.9091C49.8602 59.3348 49.5968 58.006 49.07 56.9229C48.5492 55.8398 47.8419 55.0201 46.9482 54.4638C46.0605 53.9074 45.0661 53.6293 43.9653 53.6293C42.8644 53.6293 41.8672 53.9074 40.9735 54.4638C40.0857 55.0201 39.3784 55.8398 38.8517 56.9229C38.3308 58.006 38.0704 59.3348 38.0704 60.9091C38.0704 62.4834 38.3308 63.8121 38.8517 64.8952C39.3784 65.9783 40.0857 66.7981 40.9735 67.3544C41.8672 67.9107 42.8644 68.1889 43.9653 68.1889C45.0661 68.1889 46.0605 67.9107 46.9482 67.3544C47.8419 66.7981 48.5492 65.9783 49.07 64.8952C49.5968 63.8121 49.8602 62.4834 49.8602 60.9091ZM58.9955 70L54.0239 51.8182H56.2611L60.0608 66.6264H60.2384L64.1091 51.8182H66.5949L70.4656 66.6264H70.6432L74.4429 51.8182H76.6801L71.7085 70H69.4358L65.423 55.5114H65.281L61.2682 70H58.9955ZM93.1996 57.5H90.9979C90.8677 56.8667 90.6398 56.3104 90.3143 55.831C89.9947 55.3516 89.604 54.9491 89.1424 54.6236C88.6867 54.2921 88.1806 54.0436 87.6243 53.8778C87.0679 53.7121 86.4879 53.6293 85.8842 53.6293C84.7834 53.6293 83.7861 53.9074 82.8924 54.4638C82.0046 55.0201 81.2973 55.8398 80.7706 56.9229C80.2498 58.006 79.9893 59.3348 79.9893 60.9091C79.9893 62.4834 80.2498 63.8121 80.7706 64.8952C81.2973 65.9783 82.0046 66.7981 82.8924 67.3544C83.7861 67.9107 84.7834 68.1889 85.8842 68.1889C86.4879 68.1889 87.0679 68.1061 87.6243 67.9403C88.1806 67.7746 88.6867 67.529 89.1424 67.2035C89.604 66.872 89.9947 66.4666 90.3143 65.9872C90.6398 65.5019 90.8677 64.9455 90.9979 64.3182H93.1996C93.0339 65.2474 92.732 66.079 92.294 66.8129C91.8561 67.5468 91.3116 68.1712 90.6605 68.6861C90.0095 69.1951 89.2785 69.5827 88.4677 69.8491C87.6628 70.1154 86.8016 70.2486 85.8842 70.2486C84.3336 70.2486 82.9545 69.8698 81.7472 69.1122C80.5398 68.3546 79.5898 67.2775 78.8974 65.8807C78.2049 64.4839 77.8587 62.8267 77.8587 60.9091C77.8587 58.9915 78.2049 57.3343 78.8974 55.9375C79.5898 54.5407 80.5398 53.4635 81.7472 52.706C82.9545 51.9484 84.3336 51.5696 85.8842 51.5696C86.8016 51.5696 87.6628 51.7028 88.4677 51.9691C89.2785 52.2354 90.0095 52.6261 90.6605 53.141C91.3116 53.65 91.8561 54.2714 92.294 55.0053C92.732 55.7333 93.0339 56.5649 93.1996 57.5ZM97.5031 70H95.1949L101.871 51.8182H104.144L110.82 70H108.512L103.078 54.6946H102.936L97.5031 70ZM98.3554 62.8977H107.659V64.8509H98.3554V62.8977ZM123.595 56.3636C123.489 55.464 123.056 54.7656 122.299 54.2685C121.541 53.7713 120.612 53.5227 119.511 53.5227C118.706 53.5227 118.002 53.6529 117.398 53.9134C116.801 54.1738 116.333 54.5318 115.996 54.9876C115.664 55.4433 115.498 55.9612 115.498 56.5412C115.498 57.0265 115.614 57.4438 115.845 57.793C116.081 58.1362 116.383 58.4233 116.75 58.6541C117.117 58.879 117.502 59.0655 117.904 59.2134C118.307 59.3555 118.677 59.4709 119.014 59.5597L120.861 60.0568C121.334 60.1811 121.861 60.3527 122.441 60.5717C123.027 60.7907 123.586 61.0896 124.119 61.4684C124.657 61.8413 125.101 62.3207 125.451 62.9066C125.8 63.4925 125.974 64.2116 125.974 65.0639C125.974 66.0464 125.717 66.9342 125.202 67.7273C124.693 68.5204 123.947 69.1507 122.965 69.6183C121.988 70.0858 120.802 70.3196 119.405 70.3196C118.103 70.3196 116.975 70.1095 116.022 69.6893C115.075 69.2691 114.33 68.6831 113.785 67.9315C113.246 67.1798 112.942 66.3068 112.871 65.3125H115.143C115.203 65.9991 115.433 66.5672 115.836 67.017C116.244 67.4609 116.759 67.7924 117.381 68.0114C118.008 68.2244 118.683 68.331 119.405 68.331C120.245 68.331 121 68.1948 121.669 67.9226C122.337 67.6444 122.867 67.2597 123.258 66.7685C123.648 66.2713 123.844 65.6913 123.844 65.0284C123.844 64.4247 123.675 63.9335 123.338 63.5547C123 63.1759 122.556 62.8681 122.006 62.6314C121.456 62.3946 120.861 62.1875 120.222 62.0099L117.984 61.3707C116.564 60.9624 115.439 60.3794 114.611 59.6218C113.782 58.8642 113.368 57.8729 113.368 56.6477C113.368 55.6297 113.643 54.742 114.193 53.9844C114.75 53.2209 115.496 52.629 116.431 52.2088C117.372 51.7827 118.422 51.5696 119.582 51.5696C120.754 51.5696 121.796 51.7797 122.707 52.1999C123.619 52.6142 124.341 53.1824 124.873 53.9045C125.412 54.6265 125.696 55.4463 125.726 56.3636H123.595ZM129.594 70V51.8182H140.567V53.7713H131.796V59.9148H139.999V61.8679H131.796V68.0469H140.709V70H129.594Z" fill="#31326F" fill-opacity="0.79"/>
<path d="M12.1449 56.3636L11.1518 56.4812L11.2563 57.3636H12.1449V56.3636ZM10.8487 54.2685L10.3001 55.1045L10.3001 55.1045L10.8487 54.2685ZM5.94815 53.9134L5.55206 52.9951L5.54876 52.9966L5.94815 53.9134ZM4.54545 54.9876L3.74168 54.3926L3.73672 54.3994L4.54545 54.9876ZM4.39453 57.793L3.56031 58.3444L3.56573 58.3526L3.57132 58.3607L4.39453 57.793ZM5.30007 58.6541L4.76758 59.5006L4.77751 59.5067L5.30007 58.6541ZM6.45419 59.2134L6.1091 60.1521L6.12137 60.1564L6.45419 59.2134ZM7.56392 59.5597L7.8239 58.594L7.81841 58.5926L7.56392 59.5597ZM9.41051 60.0568L9.15053 61.0225L9.15661 61.024L9.41051 60.0568ZM10.9908 60.5717L10.6375 61.5073L10.6407 61.5085L10.9908 60.5717ZM12.6687 61.4684L12.0891 62.2834L12.0995 62.2906L12.6687 61.4684ZM14.0004 62.9066L14.8594 62.3947L14.8594 62.3947L14.0004 62.9066ZM13.7518 67.7273L12.913 67.1827L12.9102 67.1871L13.7518 67.7273ZM11.5146 69.6183L11.0848 68.7153L11.0827 68.7163L11.5146 69.6183ZM4.57209 69.6893L4.16648 70.6033L4.16859 70.6043L4.57209 69.6893ZM2.33487 67.9315L1.52199 68.5139L1.52503 68.5181L2.33487 67.9315ZM1.42045 65.3125V64.3125H0.346478L0.422996 65.3837L1.42045 65.3125ZM3.69318 65.3125L4.68949 65.2266L4.61068 64.3125H3.69318V65.3125ZM4.38565 67.017L3.64034 67.6839L3.64972 67.6941L4.38565 67.017ZM5.9304 68.0114L5.59803 68.9546L5.60882 68.9582L5.9304 68.0114ZM10.2184 67.9226L10.5954 68.8488L10.6024 68.8459L10.2184 67.9226ZM11.8075 66.7685L12.5902 67.3909L12.5938 67.3863L11.8075 66.7685ZM11.8874 63.5547L12.6342 62.8896L12.6342 62.8896L11.8874 63.5547ZM10.5558 62.6314L10.1606 63.55L10.1606 63.55L10.5558 62.6314ZM8.77131 62.0099L8.49658 62.9715L8.50366 62.9735L8.77131 62.0099ZM6.53409 61.3707L6.25778 62.3318L6.25937 62.3323L6.53409 61.3707ZM3.16051 59.6218L2.48574 60.3598L2.48574 60.3598L3.16051 59.6218ZM2.74325 53.9844L1.93506 53.3955L1.93424 53.3966L2.74325 53.9844ZM4.98047 52.2088L5.39035 53.1209L5.39298 53.1198L4.98047 52.2088ZM11.2571 52.1999L10.8384 53.1081L10.8433 53.1103L11.2571 52.1999ZM13.4233 53.9045L12.6186 54.4981L12.6217 54.5024L13.4233 53.9045ZM14.2756 56.3636V57.3636H15.3083L15.275 56.3314L14.2756 56.3636ZM13.1379 56.246C12.9967 55.053 12.4019 54.0916 11.3974 53.4324L10.3001 55.1045C10.8107 55.4396 11.08 55.8751 11.1518 56.4812L13.1379 56.246ZM11.3974 53.4324C10.4447 52.8072 9.31461 52.5227 8.06108 52.5227V54.5227C9.00926 54.5227 9.73756 54.7354 10.3001 55.1045L11.3974 53.4324ZM8.06108 52.5227C7.1497 52.5227 6.30555 52.6701 5.55206 52.9951L6.34424 54.8316C6.79815 54.6358 7.36261 54.5227 8.06108 54.5227V52.5227ZM5.54876 52.9966C4.81476 53.3163 4.19811 53.776 3.74171 54.3926L5.3492 55.5825C5.56751 55.2876 5.886 55.0312 6.34754 54.8301L5.54876 52.9966ZM3.73672 54.3994C3.27713 55.0313 3.0483 55.7565 3.0483 56.5412H5.0483C5.0483 56.1659 5.1509 55.8553 5.35419 55.5757L3.73672 54.3994ZM3.0483 56.5412C3.0483 57.1906 3.20495 57.8068 3.56031 58.3444L5.22875 57.2415C5.12246 57.0807 5.0483 56.8625 5.0483 56.5412H3.0483ZM3.57132 58.3607C3.88813 58.8201 4.29049 59.2005 4.76762 59.5006L5.83252 57.8077C5.57575 57.6461 5.37442 57.4524 5.21774 57.2252L3.57132 58.3607ZM4.77751 59.5067C5.20044 59.7659 5.64458 59.9812 6.10912 60.152L6.79926 58.2748C6.45888 58.1497 6.13361 57.9921 5.82263 57.8015L4.77751 59.5067ZM6.12137 60.1564C6.54415 60.3056 6.94059 60.4297 7.30943 60.5267L7.81841 58.5926C7.51253 58.5121 7.16915 58.4053 6.78701 58.2704L6.12137 60.1564ZM7.30395 60.5253L9.15054 61.0224L9.67049 59.0912L7.82389 58.594L7.30395 60.5253ZM9.15661 61.024C9.58901 61.1376 10.0819 61.2975 10.6376 61.5073L11.344 59.6362C10.7395 59.408 10.179 59.2247 9.66441 59.0896L9.15661 61.024ZM10.6407 61.5085C11.1416 61.6957 11.6242 61.9527 12.0892 62.2833L13.2482 60.6534C12.6479 60.2265 12.0118 59.8858 11.3409 59.635L10.6407 61.5085ZM12.0995 62.2906C12.5155 62.5786 12.8623 62.9504 13.1413 63.4185L14.8594 62.3947C14.44 61.691 13.8991 61.1039 13.2379 60.6462L12.0995 62.2906ZM13.1413 63.4185C13.3778 63.8154 13.5241 64.3473 13.5241 65.0639H15.5241C15.5241 64.076 15.3213 63.1697 14.8594 62.3947L13.1413 63.4185ZM13.5241 65.0639C13.5241 65.8611 13.3185 66.5583 12.913 67.1827L14.5905 68.2718C15.2149 67.3101 15.5241 66.2317 15.5241 65.0639H13.5241ZM12.9102 67.1871C12.5167 67.8002 11.9254 68.3153 11.0848 68.7153L11.9443 70.5212C13.0687 69.9861 13.9688 69.2405 14.5934 68.2674L12.9102 67.1871ZM11.0827 68.7163C10.2742 69.1034 9.24365 69.3196 7.95455 69.3196V71.3196C9.459 71.3196 10.8018 71.0682 11.9464 70.5202L11.0827 68.7163ZM7.95455 69.3196C6.75771 69.3196 5.77376 69.1263 4.97559 68.7743L4.16859 70.6043C5.2762 71.0927 6.54722 71.3196 7.95455 71.3196V69.3196ZM4.9777 68.7752C4.17281 68.4181 3.57406 67.9375 3.14471 67.3448L1.52503 68.5181C2.1847 69.4287 3.07743 70.1201 4.16648 70.6033L4.9777 68.7752ZM3.14774 67.349C2.72509 66.7592 2.47685 66.0663 2.41791 65.2413L0.422996 65.3837C0.506108 66.5473 0.867475 67.6004 1.522 68.5139L3.14774 67.349ZM1.42045 66.3125H3.69318V64.3125H1.42045V66.3125ZM2.69688 65.3984C2.77191 66.2687 3.07359 67.0503 3.64041 67.6838L5.13089 66.3503C4.89279 66.0841 4.73283 65.7294 4.68949 65.2266L2.69688 65.3984ZM3.64972 67.6941C4.17885 68.2692 4.8369 68.6863 5.59805 68.9545L6.26275 67.0682C5.78099 66.8984 5.40922 66.6526 5.12158 66.34L3.64972 67.6941ZM5.60882 68.9582C6.34864 69.2095 7.1329 69.331 7.95455 69.331V67.331C7.33206 67.331 6.76689 67.2394 6.25198 67.0645L5.60882 68.9582ZM7.95455 69.331C8.90335 69.331 9.78896 69.1771 10.5954 68.8488L9.84136 66.9964C9.31024 67.2126 8.68662 67.331 7.95455 67.331V69.331ZM10.6024 68.8459C11.4031 68.5129 12.0791 68.0337 12.5902 67.3909L11.0248 66.1461C10.7547 66.4857 10.3712 66.776 9.83436 66.9993L10.6024 68.8459ZM12.5938 67.3863C13.1299 66.704 13.3935 65.9037 13.3935 65.0284H11.3935C11.3935 65.4789 11.2664 65.8386 11.0212 66.1506L12.5938 67.3863ZM13.3935 65.0284C13.3935 64.2287 13.1647 63.4852 12.6342 62.8896L11.1407 64.2198C11.2849 64.3817 11.3935 64.6208 11.3935 65.0284H13.3935ZM12.6342 62.8896C12.1835 62.3836 11.6115 61.9969 10.9509 61.7128L10.1606 63.55C10.6008 63.7394 10.9166 63.9682 11.1407 64.2198L12.6342 62.8896ZM10.9509 61.7128C10.3549 61.4564 9.71706 61.2348 9.03895 61.0464L8.50366 62.9735C9.10396 63.1402 9.65577 63.3329 10.1606 63.55L10.9509 61.7128ZM9.04603 61.0484L6.80881 60.4092L6.25937 62.3323L8.49659 62.9715L9.04603 61.0484ZM6.8104 60.4097C5.49317 60.031 4.51988 59.5097 3.83528 58.8838L2.48574 60.3598C3.45834 61.2491 4.73411 61.8938 6.25778 62.3318L6.8104 60.4097ZM3.83528 58.8838C3.23411 58.3341 2.91761 57.6207 2.91761 56.6477H0.917614C0.917614 58.125 1.42972 59.3943 2.48574 60.3598L3.83528 58.8838ZM2.91761 56.6477C2.91761 55.8215 3.13691 55.1438 3.55226 54.5722L1.93424 53.3966C1.24874 54.3401 0.917614 55.438 0.917614 56.6477H2.91761ZM3.55145 54.5733C3.99675 53.9622 4.59991 53.4761 5.39035 53.1209L4.57058 51.2967C3.49076 51.7819 2.60244 52.4796 1.93506 53.3955L3.55145 54.5733ZM5.39298 53.1198C6.18934 52.7591 7.09679 52.5696 8.1321 52.5696V50.5696C6.84734 50.5696 5.6537 50.8062 4.56796 51.2979L5.39298 53.1198ZM8.1321 52.5696C9.18347 52.5696 10.0785 52.7577 10.8384 53.1081L11.6758 51.2918C10.6128 50.8017 9.42449 50.5696 8.1321 50.5696V52.5696ZM10.8433 53.1103C11.6179 53.4624 12.1984 53.9286 12.6186 54.4981L14.228 53.3108C13.5828 52.4363 12.7192 51.7661 11.6709 51.2896L10.8433 53.1103ZM12.6217 54.5024C13.0356 55.0573 13.253 55.6787 13.2761 56.3959L15.275 56.3314C15.239 55.2138 14.8882 54.1958 14.2249 53.3066L12.6217 54.5024ZM14.2756 55.3636H12.1449V57.3636H14.2756V55.3636ZM18.1441 70H17.1441V71H18.1441V70ZM18.1441 51.8182V50.8182H17.1441V51.8182H18.1441ZM20.3458 51.8182H21.3458V50.8182H20.3458V51.8182ZM20.3458 59.9148H19.3458V60.9148H20.3458V59.9148ZM30.0404 59.9148V60.9148H31.0404V59.9148H30.0404ZM30.0404 51.8182V50.8182H29.0404V51.8182H30.0404ZM32.2421 51.8182H33.2421V50.8182H32.2421V51.8182ZM32.2421 70V71H33.2421V70H32.2421ZM30.0404 70H29.0404V71H30.0404V70ZM30.0404 61.8679H31.0404V60.8679H30.0404V61.8679ZM20.3458 61.8679V60.8679H19.3458V61.8679H20.3458ZM20.3458 70V71H21.3458V70H20.3458ZM19.1441 70V51.8182H17.1441V70H19.1441ZM18.1441 52.8182H20.3458V50.8182H18.1441V52.8182ZM19.3458 51.8182V59.9148H21.3458V51.8182H19.3458ZM20.3458 60.9148H30.0404V58.9148H20.3458V60.9148ZM31.0404 59.9148V51.8182H29.0404V59.9148H31.0404ZM30.0404 52.8182H32.2421V50.8182H30.0404V52.8182ZM31.2421 51.8182V70H33.2421V51.8182H31.2421ZM32.2421 69H30.0404V71H32.2421V69ZM31.0404 70V61.8679H29.0404V70H31.0404ZM30.0404 60.8679H20.3458V62.8679H30.0404V60.8679ZM19.3458 61.8679V70H21.3458V61.8679H19.3458ZM20.3458 69H18.1441V71H20.3458V69ZM50.9521 65.8807L50.0562 65.4365L50.0562 65.4365L50.9521 65.8807ZM48.1024 69.1122L48.6339 69.9593L48.6339 69.9593L48.1024 69.1122ZM39.8282 69.1122L39.2967 69.9593L39.2967 69.9593L39.8282 69.1122ZM36.9784 65.8807L37.8744 65.4365L37.8744 65.4365L36.9784 65.8807ZM48.1024 52.706L48.6339 51.8589L48.6339 51.8589L48.1024 52.706ZM50.9521 55.9375L50.0562 56.3817L50.0562 56.3817L50.9521 55.9375ZM49.07 56.9229L48.1688 57.3563L48.1708 57.3603L49.07 56.9229ZM46.9482 54.4638L46.4172 55.3111L46.4198 55.3127L46.9482 54.4638ZM40.9735 54.4638L40.445 53.6148L40.4424 53.6164L40.9735 54.4638ZM38.8517 56.9229L37.9524 56.4856L37.9504 56.4896L38.8517 56.9229ZM38.8517 64.8952L37.9504 65.3286L37.9524 65.3326L38.8517 64.8952ZM40.9735 67.3544L40.4424 68.2018L40.445 68.2033L40.9735 67.3544ZM46.9482 67.3544L46.4198 66.5055L46.4172 66.507L46.9482 67.3544ZM49.07 64.8952L48.1708 64.4579L48.1688 64.4619L49.07 64.8952ZM50.9909 60.9091C50.9909 62.7074 50.6663 64.2059 50.0562 65.4365L51.8481 66.3249C52.6229 64.7619 52.9909 62.946 52.9909 60.9091H50.9909ZM50.0562 65.4365C49.4378 66.684 48.6074 67.6148 47.5709 68.2652L48.6339 69.9593C50.0121 69.0945 51.0816 67.871 51.8481 66.3249L50.0562 65.4365ZM47.5709 68.2652C46.5367 68.9141 45.3451 69.2486 43.9653 69.2486V71.2486C45.6868 71.2486 47.2533 70.8255 48.6339 69.9593L47.5709 68.2652ZM43.9653 69.2486C42.5855 69.2486 41.3939 68.9141 40.3597 68.2652L39.2967 69.9593C40.6773 70.8255 42.2438 71.2486 43.9653 71.2486V69.2486ZM40.3597 68.2652C39.3232 67.6148 38.4928 66.684 37.8744 65.4365L36.0825 66.3249C36.849 67.871 37.9185 69.0945 39.2967 69.9593L40.3597 68.2652ZM37.8744 65.4365C37.2643 64.2059 36.9397 62.7074 36.9397 60.9091H34.9397C34.9397 62.946 35.3076 64.7619 36.0825 66.3249L37.8744 65.4365ZM36.9397 60.9091C36.9397 59.1108 37.2643 57.6123 37.8744 56.3817L36.0825 55.4933C35.3076 57.0563 34.9397 58.8722 34.9397 60.9091H36.9397ZM37.8744 56.3817C38.4928 55.1342 39.3232 54.2034 40.3597 53.553L39.2967 51.8589C37.9185 52.7237 36.849 53.9472 36.0825 55.4933L37.8744 56.3817ZM40.3597 53.553C41.3939 52.9041 42.5855 52.5696 43.9653 52.5696V50.5696C42.2438 50.5696 40.6773 50.9927 39.2967 51.8589L40.3597 53.553ZM43.9653 52.5696C45.3451 52.5696 46.5367 52.9041 47.5709 53.553L48.6339 51.8589C47.2533 50.9927 45.6868 50.5696 43.9653 50.5696V52.5696ZM47.5709 53.553C48.6074 54.2034 49.4378 55.1342 50.0562 56.3817L51.8481 55.4933C51.0816 53.9472 50.0121 52.7237 48.6339 51.8589L47.5709 53.553ZM50.0562 56.3817C50.6663 57.6123 50.9909 59.1108 50.9909 60.9091H52.9909C52.9909 58.8722 52.6229 57.0563 51.8481 55.4933L50.0562 56.3817ZM50.8602 60.9091C50.8602 59.2279 50.5795 57.7401 49.9693 56.4856L48.1708 57.3603C48.6141 58.2719 48.8602 59.4416 48.8602 60.9091H50.8602ZM49.9713 56.4896C49.3801 55.2602 48.5535 54.2851 47.4767 53.6148L46.4198 55.3127C47.1304 55.7551 47.7183 56.4195 48.1688 57.3563L49.9713 56.4896ZM47.4793 53.6164C46.4241 52.9552 45.244 52.6293 43.9653 52.6293V54.6293C44.8883 54.6293 45.6969 54.8597 46.4172 55.3111L47.4793 53.6164ZM43.9653 52.6293C42.6866 52.6293 41.5047 52.9551 40.445 53.6148L41.5019 55.3127C42.2296 54.8597 43.0423 54.6293 43.9653 54.6293V52.6293ZM40.4424 53.6164C39.3733 54.2864 38.5485 55.2598 37.9524 56.4856L39.7509 57.3603C40.2083 56.4199 40.798 55.7538 41.5045 55.3111L40.4424 53.6164ZM37.9504 56.4896C37.3477 57.743 37.0704 59.2293 37.0704 60.9091H39.0704C39.0704 59.4402 39.314 58.269 39.7529 57.3563L37.9504 56.4896ZM37.0704 60.9091C37.0704 62.5889 37.3477 64.0751 37.9504 65.3286L39.7529 64.4619C39.314 63.5491 39.0704 62.378 39.0704 60.9091H37.0704ZM37.9524 65.3326C38.5485 66.5584 39.3733 67.5318 40.4424 68.2018L41.5045 66.507C40.798 66.0643 40.2083 65.3983 39.7509 64.4579L37.9524 65.3326ZM40.445 68.2033C41.5047 68.863 42.6866 69.1889 43.9653 69.1889V67.1889C43.0423 67.1889 42.2296 66.9584 41.5019 66.5055L40.445 68.2033ZM43.9653 69.1889C45.244 69.1889 46.4241 68.863 47.4793 68.2018L46.4172 66.507C45.6969 66.9585 44.8883 67.1889 43.9653 67.1889V69.1889ZM47.4767 68.2033C48.5535 67.533 49.3801 66.558 49.9713 65.3286L48.1688 64.4619C47.7183 65.3987 47.1304 66.0631 46.4198 66.5055L47.4767 68.2033ZM49.9693 65.3326C50.5795 64.078 50.8602 62.5902 50.8602 60.9091H48.8602C48.8602 62.3766 48.6141 63.5463 48.1708 64.4579L49.9693 65.3326ZM58.9955 70L58.0309 70.2638L58.2322 71H58.9955V70ZM54.0239 51.8182V50.8182H52.7137L53.0593 52.0819L54.0239 51.8182ZM56.2611 51.8182L57.2297 51.5696L57.0369 50.8182H56.2611V51.8182ZM60.0608 66.6264L59.0922 66.875L59.285 67.6264H60.0608V66.6264ZM60.2384 66.6264V67.6264H61.0106L61.2059 66.8793L60.2384 66.6264ZM64.1091 51.8182V50.8182H63.3369L63.1416 51.5653L64.1091 51.8182ZM66.5949 51.8182L67.5624 51.5653L67.3671 50.8182H66.5949V51.8182ZM70.4656 66.6264L69.4981 66.8793L69.6934 67.6264H70.4656V66.6264ZM70.6432 66.6264V67.6264H71.419L71.6118 66.875L70.6432 66.6264ZM74.4429 51.8182V50.8182H73.6671L73.4743 51.5696L74.4429 51.8182ZM76.6801 51.8182L77.6447 52.0819L77.9903 50.8182H76.6801V51.8182ZM71.7085 70V71H72.4718L72.6731 70.2638L71.7085 70ZM69.4358 70L68.4721 70.2669L68.6751 71H69.4358V70ZM65.423 55.5114L66.3868 55.2444L66.1837 54.5114H65.423V55.5114ZM65.281 55.5114V54.5114H64.5203L64.3173 55.2444L65.281 55.5114ZM61.2682 70V71H62.0289L62.2319 70.2669L61.2682 70ZM59.9601 69.7362L54.9885 51.5544L53.0593 52.0819L58.0309 70.2638L59.9601 69.7362ZM54.0239 52.8182H56.2611V50.8182H54.0239V52.8182ZM55.2925 52.0667L59.0922 66.875L61.0294 66.3779L57.2297 51.5696L55.2925 52.0667ZM60.0608 67.6264H60.2384V65.6264H60.0608V67.6264ZM61.2059 66.8793L65.0766 52.0711L63.1416 51.5653L59.2709 66.3735L61.2059 66.8793ZM64.1091 52.8182H66.5949V50.8182H64.1091V52.8182ZM65.6274 52.0711L69.4981 66.8793L71.4331 66.3735L67.5624 51.5653L65.6274 52.0711ZM70.4656 67.6264H70.6432V65.6264H70.4656V67.6264ZM71.6118 66.875L75.4115 52.0667L73.4743 51.5696L69.6746 66.3779L71.6118 66.875ZM74.4429 52.8182H76.6801V50.8182H74.4429V52.8182ZM75.7155 51.5544L70.744 69.7362L72.6731 70.2638L77.6447 52.0819L75.7155 51.5544ZM71.7085 69H69.4358V71H71.7085V69ZM70.3995 69.7331L66.3868 55.2444L64.4593 55.7783L68.4721 70.2669L70.3995 69.7331ZM65.423 54.5114H65.281V56.5114H65.423V54.5114ZM64.3173 55.2444L60.3045 69.7331L62.2319 70.2669L66.2447 55.7783L64.3173 55.2444ZM61.2682 69H58.9955V71H61.2682V69ZM93.1996 57.5V58.5H94.3924L94.1842 57.3255L93.1996 57.5ZM90.9979 57.5L90.0184 57.7014L90.1826 58.5H90.9979V57.5ZM90.3143 55.831L89.4822 56.3857L89.487 56.3927L90.3143 55.831ZM89.1424 54.6236L88.5542 55.4323L88.5601 55.4366L88.5661 55.4408L89.1424 54.6236ZM87.6243 53.8778L87.3388 54.8362L87.3388 54.8362L87.6243 53.8778ZM82.8924 54.4638L82.3639 53.6148L82.3614 53.6164L82.8924 54.4638ZM80.7706 56.9229L79.8713 56.4856L79.8694 56.4896L80.7706 56.9229ZM80.7706 64.8952L79.8694 65.3286L79.8713 65.3326L80.7706 64.8952ZM82.8924 67.3544L82.3614 68.2018L82.3639 68.2033L82.8924 67.3544ZM87.6243 67.9403L87.3388 66.982L87.3388 66.982L87.6243 67.9403ZM89.1424 67.2035L89.7236 68.0172L89.7256 68.0158L89.1424 67.2035ZM90.3143 65.9872L89.4838 65.4302L89.4822 65.4325L90.3143 65.9872ZM90.9979 64.3182V63.3182H90.1841L90.0187 64.115L90.9979 64.3182ZM93.1996 64.3182L94.184 64.4938L94.3937 63.3182H93.1996V64.3182ZM92.294 66.8129L91.4353 66.3004L91.4353 66.3004L92.294 66.8129ZM90.6605 68.6861L91.2764 69.4739L91.2809 69.4704L90.6605 68.6861ZM88.4677 69.8491L88.1556 68.899L88.1536 68.8997L88.4677 69.8491ZM81.7472 69.1122L81.2157 69.9593L81.2157 69.9593L81.7472 69.1122ZM78.8974 65.8807L79.7933 65.4365L79.7933 65.4365L78.8974 65.8807ZM88.4677 51.9691L88.1536 52.9185L88.1556 52.9192L88.4677 51.9691ZM90.6605 53.141L90.0402 53.9253L90.0446 53.9288L90.6605 53.141ZM92.294 55.0053L91.4353 55.5178L91.4372 55.5208L92.294 55.0053ZM93.1996 56.5H90.9979V58.5H93.1996V56.5ZM91.9774 57.2986C91.8237 56.5513 91.5492 55.8695 91.1416 55.2692L89.487 56.3927C89.7304 56.7513 89.9116 57.1822 90.0184 57.7014L91.9774 57.2986ZM91.1463 55.2763C90.7598 54.6964 90.2831 54.2043 89.7187 53.8063L88.5661 55.4408C88.925 55.6939 89.2296 56.0067 89.4822 56.3857L91.1463 55.2763ZM89.7306 53.8148C89.1804 53.4147 88.5714 53.1165 87.9098 52.9195L87.3388 54.8362C87.7898 54.9706 88.1929 55.1696 88.5542 55.4323L89.7306 53.8148ZM87.9098 52.9195C87.2571 52.7251 86.5807 52.6293 85.8842 52.6293V54.6293C86.3951 54.6293 86.8788 54.6992 87.3388 54.8362L87.9098 52.9195ZM85.8842 52.6293C84.6055 52.6293 83.4237 52.9551 82.3639 53.6148L83.4209 55.3127C84.1486 54.8597 84.9612 54.6293 85.8842 54.6293V52.6293ZM82.3614 53.6164C81.2922 54.2864 80.4675 55.2598 79.8713 56.4856L81.6699 57.3603C82.1272 56.4199 82.717 55.7538 83.4234 55.3111L82.3614 53.6164ZM79.8694 56.4896C79.2666 57.743 78.9893 59.2293 78.9893 60.9091H80.9893C80.9893 59.4402 81.2329 58.269 81.6718 57.3563L79.8694 56.4896ZM78.9893 60.9091C78.9893 62.5889 79.2666 64.0751 79.8694 65.3286L81.6718 64.4619C81.2329 63.5491 80.9893 62.378 80.9893 60.9091H78.9893ZM79.8713 65.3326C80.4675 66.5584 81.2922 67.5318 82.3614 68.2018L83.4234 66.507C82.717 66.0643 82.1272 65.3983 81.6699 64.4579L79.8713 65.3326ZM82.3639 68.2033C83.4237 68.863 84.6055 69.1889 85.8842 69.1889V67.1889C84.9612 67.1889 84.1486 66.9584 83.4209 66.5055L82.3639 68.2033ZM85.8842 69.1889C86.5807 69.1889 87.2571 69.0931 87.9098 68.8987L87.3388 66.982C86.8788 67.119 86.3951 67.1889 85.8842 67.1889V69.1889ZM87.9098 68.8987C88.5681 68.7026 89.1747 68.4093 89.7236 68.0172L88.5612 66.3897C88.1986 66.6487 87.7932 66.8466 87.3388 66.982L87.9098 68.8987ZM89.7256 68.0158C90.2864 67.6132 90.7609 67.1201 91.1463 66.5419L89.4822 65.4325C89.2284 65.8132 88.9217 66.1309 88.5592 66.3912L89.7256 68.0158ZM91.1448 66.5443C91.5489 65.9418 91.8231 65.263 91.977 64.5214L90.0187 64.115C89.9122 64.6281 89.7307 65.062 89.4838 65.4302L91.1448 66.5443ZM90.9979 65.3182H93.1996V63.3182H90.9979V65.3182ZM92.2151 64.1426C92.0684 64.9652 91.8052 65.6806 91.4353 66.3004L93.1527 67.3253C93.6588 66.4773 93.9993 65.5295 94.184 64.4938L92.2151 64.1426ZM91.4353 66.3004C91.0577 66.9331 90.5931 67.4645 90.0402 67.9017L91.2809 69.4704C92.03 68.8779 92.6544 68.1604 93.1527 67.3253L91.4353 66.3004ZM90.0446 67.8983C89.4877 68.3337 88.8602 68.6676 88.1556 68.899L88.7797 70.7991C89.6968 70.4979 90.5313 70.0565 91.2764 69.4739L90.0446 67.8983ZM88.1536 68.8997C87.4579 69.1299 86.7036 69.2486 85.8842 69.2486V71.2486C86.8996 71.2486 87.8676 71.101 88.7818 70.7985L88.1536 68.8997ZM85.8842 69.2486C84.5044 69.2486 83.3128 68.9141 82.2787 68.2652L81.2157 69.9593C82.5963 70.8255 84.1627 71.2486 85.8842 71.2486V69.2486ZM82.2787 68.2652C81.2421 67.6148 80.4118 66.684 79.7933 65.4365L78.0014 66.3249C78.7679 67.871 79.8374 69.0945 81.2157 69.9593L82.2787 68.2652ZM79.7933 65.4365C79.1832 64.2059 78.8587 62.7074 78.8587 60.9091H76.8587C76.8587 62.946 77.2266 64.7619 78.0014 66.3249L79.7933 65.4365ZM78.8587 60.9091C78.8587 59.1108 79.1832 57.6123 79.7933 56.3817L78.0014 55.4933C77.2266 57.0563 76.8587 58.8722 76.8587 60.9091H78.8587ZM79.7933 56.3817C80.4118 55.1342 81.2421 54.2034 82.2787 53.553L81.2157 51.8589C79.8374 52.7237 78.7679 53.9472 78.0014 55.4933L79.7933 56.3817ZM82.2787 53.553C83.3128 52.9041 84.5044 52.5696 85.8842 52.5696V50.5696C84.1627 50.5696 82.5963 50.9927 81.2157 51.8589L82.2787 53.553ZM85.8842 52.5696C86.7036 52.5696 87.4579 52.6883 88.1536 52.9185L88.7818 51.0197C87.8676 50.7172 86.8996 50.5696 85.8842 50.5696V52.5696ZM88.1556 52.9192C88.858 53.1499 89.484 53.4854 90.0402 53.9253L91.2808 52.3566C90.535 51.7667 89.6991 51.321 88.7797 51.019L88.1556 52.9192ZM90.0446 53.9288C90.5951 54.3592 91.0584 54.8862 91.4353 55.5178L93.1527 54.4929C92.6537 53.6567 92.028 52.9408 91.2764 52.3532L90.0446 53.9288ZM91.4372 55.5208C91.805 56.1323 92.0681 56.8458 92.2149 57.6745L94.1842 57.3255C93.9997 56.284 93.659 55.3343 93.1509 54.4898L91.4372 55.5208ZM97.5031 70V71H98.2093L98.4455 70.3345L97.5031 70ZM95.1949 70L94.2562 69.6553L93.7624 71H95.1949V70ZM101.871 51.8182V50.8182H101.173L100.932 51.4735L101.871 51.8182ZM104.144 51.8182L105.082 51.4735L104.842 50.8182H104.144V51.8182ZM110.82 70V71H112.252L111.759 69.6553L110.82 70ZM108.512 70L107.569 70.3345L107.805 71H108.512V70ZM103.078 54.6946L104.021 54.3601L103.785 53.6946H103.078V54.6946ZM102.936 54.6946V53.6946H102.23L101.994 54.3601L102.936 54.6946ZM98.3554 62.8977V61.8977H97.3554V62.8977H98.3554ZM107.659 62.8977H108.659V61.8977H107.659V62.8977ZM107.659 64.8509V65.8509H108.659V64.8509H107.659ZM98.3554 64.8509H97.3554V65.8509H98.3554V64.8509ZM97.5031 69H95.1949V71H97.5031V69ZM96.1336 70.3447L102.81 52.1629L100.932 51.4735L94.2562 69.6553L96.1336 70.3447ZM101.871 52.8182H104.144V50.8182H101.871V52.8182ZM103.205 52.1629L109.881 70.3447L111.759 69.6553L105.082 51.4735L103.205 52.1629ZM110.82 69H108.512V71H110.82V69ZM109.454 69.6655L104.021 54.3601L102.136 55.0291L107.569 70.3345L109.454 69.6655ZM103.078 53.6946H102.936V55.6946H103.078V53.6946ZM101.994 54.3601L96.5607 69.6655L98.4455 70.3345L103.879 55.0291L101.994 54.3601ZM98.3554 63.8977H107.659V61.8977H98.3554V63.8977ZM106.659 62.8977V64.8509H108.659V62.8977H106.659ZM107.659 63.8509H98.3554V65.8509H107.659V63.8509ZM99.3554 64.8509V62.8977H97.3554V64.8509H99.3554ZM123.595 56.3636L122.602 56.4812L122.707 57.3636H123.595V56.3636ZM122.299 54.2685L121.75 55.1045L121.75 55.1045L122.299 54.2685ZM117.398 53.9134L117.002 52.9951L116.999 52.9966L117.398 53.9134ZM115.996 54.9876L115.192 54.3926L115.187 54.3994L115.996 54.9876ZM115.845 57.793L115.011 58.3444L115.016 58.3526L115.022 58.3607L115.845 57.793ZM116.75 58.6541L116.218 59.5006L116.228 59.5067L116.75 58.6541ZM117.904 59.2134L117.559 60.1521L117.572 60.1564L117.904 59.2134ZM119.014 59.5597L119.274 58.594L119.269 58.5926L119.014 59.5597ZM120.861 60.0568L120.601 61.0225L120.607 61.024L120.861 60.0568ZM122.441 60.5717L122.088 61.5073L122.091 61.5085L122.441 60.5717ZM124.119 61.4684L123.539 62.2834L123.55 62.2906L124.119 61.4684ZM125.451 62.9066L126.31 62.3947L126.31 62.3947L125.451 62.9066ZM125.202 67.7273L124.363 67.1827L124.36 67.1871L125.202 67.7273ZM122.965 69.6183L122.535 68.7153L122.533 68.7163L122.965 69.6183ZM116.022 69.6893L115.617 70.6033L115.619 70.6043L116.022 69.6893ZM113.785 67.9315L112.972 68.5139L112.975 68.5181L113.785 67.9315ZM112.871 65.3125V64.3125H111.797L111.873 65.3837L112.871 65.3125ZM115.143 65.3125L116.14 65.2266L116.061 64.3125H115.143V65.3125ZM115.836 67.017L115.091 67.6839L115.1 67.6941L115.836 67.017ZM117.381 68.0114L117.048 68.9546L117.059 68.9582L117.381 68.0114ZM121.669 67.9226L122.046 68.8488L122.053 68.8459L121.669 67.9226ZM123.258 66.7685L124.04 67.3909L124.044 67.3863L123.258 66.7685ZM123.338 63.5547L124.084 62.8896L124.084 62.8896L123.338 63.5547ZM122.006 62.6314L121.611 63.55L121.611 63.55L122.006 62.6314ZM120.222 62.0099L119.947 62.9715L119.954 62.9735L120.222 62.0099ZM117.984 61.3707L117.708 62.3318L117.71 62.3323L117.984 61.3707ZM114.611 59.6218L113.936 60.3598L113.936 60.3598L114.611 59.6218ZM114.193 53.9844L113.385 53.3955L113.384 53.3966L114.193 53.9844ZM116.431 52.2088L116.841 53.1209L116.843 53.1198L116.431 52.2088ZM122.707 52.1999L122.289 53.1081L122.293 53.1103L122.707 52.1999ZM124.873 53.9045L124.069 54.4981L124.072 54.5024L124.873 53.9045ZM125.726 56.3636V57.3636H126.759L126.725 56.3314L125.726 56.3636ZM124.588 56.246C124.447 55.053 123.852 54.0916 122.848 53.4324L121.75 55.1045C122.261 55.4396 122.53 55.8751 122.602 56.4812L124.588 56.246ZM122.848 53.4324C121.895 52.8072 120.765 52.5227 119.511 52.5227V54.5227C120.459 54.5227 121.188 54.7354 121.75 55.1045L122.848 53.4324ZM119.511 52.5227C118.6 52.5227 117.756 52.6701 117.002 52.9951L117.794 54.8316C118.248 54.6358 118.813 54.5227 119.511 54.5227V52.5227ZM116.999 52.9966C116.265 53.3163 115.648 53.776 115.192 54.3926L116.799 55.5825C117.018 55.2876 117.336 55.0312 117.798 54.8301L116.999 52.9966ZM115.187 54.3994C114.727 55.0313 114.498 55.7565 114.498 56.5412H116.498C116.498 56.1659 116.601 55.8553 116.804 55.5757L115.187 54.3994ZM114.498 56.5412C114.498 57.1906 114.655 57.8068 115.011 58.3444L116.679 57.2415C116.573 57.0807 116.498 56.8625 116.498 56.5412H114.498ZM115.022 58.3607C115.338 58.8201 115.741 59.2005 116.218 59.5006L117.283 57.8077C117.026 57.6461 116.825 57.4524 116.668 57.2252L115.022 58.3607ZM116.228 59.5067C116.651 59.7659 117.095 59.9812 117.559 60.152L118.249 58.2748C117.909 58.1497 117.584 57.9921 117.273 57.8015L116.228 59.5067ZM117.572 60.1564C117.994 60.3056 118.391 60.4297 118.76 60.5267L119.269 58.5926C118.963 58.5121 118.619 58.4053 118.237 58.2704L117.572 60.1564ZM118.754 60.5253L120.601 61.0224L121.121 59.0912L119.274 58.594L118.754 60.5253ZM120.607 61.024C121.039 61.1376 121.532 61.2975 122.088 61.5073L122.794 59.6362C122.19 59.408 121.629 59.2247 121.115 59.0896L120.607 61.024ZM122.091 61.5085C122.592 61.6957 123.074 61.9527 123.539 62.2833L124.698 60.6534C124.098 60.2265 123.462 59.8858 122.791 59.635L122.091 61.5085ZM123.55 62.2906C123.966 62.5786 124.313 62.9504 124.592 63.4185L126.31 62.3947C125.89 61.691 125.349 61.1039 124.688 60.6462L123.55 62.2906ZM124.592 63.4185C124.828 63.8154 124.974 64.3473 124.974 65.0639H126.974C126.974 64.076 126.771 63.1697 126.31 62.3947L124.592 63.4185ZM124.974 65.0639C124.974 65.8611 124.769 66.5583 124.363 67.1827L126.041 68.2718C126.665 67.3101 126.974 66.2317 126.974 65.0639H124.974ZM124.36 67.1871C123.967 67.8002 123.376 68.3153 122.535 68.7153L123.394 70.5212C124.519 69.9861 125.419 69.2405 126.044 68.2674L124.36 67.1871ZM122.533 68.7163C121.724 69.1034 120.694 69.3196 119.405 69.3196V71.3196C120.909 71.3196 122.252 71.0682 123.397 70.5202L122.533 68.7163ZM119.405 69.3196C118.208 69.3196 117.224 69.1263 116.426 68.7743L115.619 70.6043C116.726 71.0927 117.997 71.3196 119.405 71.3196V69.3196ZM116.428 68.7752C115.623 68.4181 115.024 67.9375 114.595 67.3448L112.975 68.5181C113.635 69.4287 114.528 70.1201 115.617 70.6033L116.428 68.7752ZM114.598 67.349C114.175 66.7592 113.927 66.0663 113.868 65.2413L111.873 65.3837C111.956 66.5473 112.318 67.6004 112.972 68.5139L114.598 67.349ZM112.871 66.3125H115.143V64.3125H112.871V66.3125ZM114.147 65.3984C114.222 66.2687 114.524 67.0503 115.091 67.6838L116.581 66.3503C116.343 66.0841 116.183 65.7294 116.14 65.2266L114.147 65.3984ZM115.1 67.6941C115.629 68.2692 116.287 68.6863 117.048 68.9545L117.713 67.0682C117.231 66.8984 116.859 66.6526 116.572 66.34L115.1 67.6941ZM117.059 68.9582C117.799 69.2095 118.583 69.331 119.405 69.331V67.331C118.782 67.331 118.217 67.2394 117.702 67.0645L117.059 68.9582ZM119.405 69.331C120.354 69.331 121.239 69.1771 122.046 68.8488L121.292 66.9964C120.76 67.2126 120.137 67.331 119.405 67.331V69.331ZM122.053 68.8459C122.853 68.5129 123.529 68.0337 124.04 67.3909L122.475 66.1461C122.205 66.4857 121.821 66.776 121.285 66.9993L122.053 68.8459ZM124.044 67.3863C124.58 66.704 124.844 65.9037 124.844 65.0284H122.844C122.844 65.4789 122.717 65.8386 122.471 66.1506L124.044 67.3863ZM124.844 65.0284C124.844 64.2287 124.615 63.4852 124.084 62.8896L122.591 64.2198C122.735 64.3817 122.844 64.6208 122.844 65.0284H124.844ZM124.084 62.8896C123.634 62.3836 123.062 61.9969 122.401 61.7128L121.611 63.55C122.051 63.7394 122.367 63.9682 122.591 64.2198L124.084 62.8896ZM122.401 61.7128C121.805 61.4564 121.167 61.2348 120.489 61.0464L119.954 62.9735C120.554 63.1402 121.106 63.3329 121.611 63.55L122.401 61.7128ZM120.496 61.0484L118.259 60.4092L117.71 62.3323L119.947 62.9715L120.496 61.0484ZM118.261 60.4097C116.943 60.031 115.97 59.5097 115.285 58.8838L113.936 60.3598C114.909 61.2491 116.184 61.8938 117.708 62.3318L118.261 60.4097ZM115.285 58.8838C114.684 58.3341 114.368 57.6207 114.368 56.6477H112.368C112.368 58.125 112.88 59.3943 113.936 60.3598L115.285 58.8838ZM114.368 56.6477C114.368 55.8215 114.587 55.1438 115.002 54.5722L113.384 53.3966C112.699 54.3401 112.368 55.438 112.368 56.6477H114.368ZM115.002 54.5733C115.447 53.9622 116.05 53.4761 116.841 53.1209L116.021 51.2967C114.941 51.7819 114.053 52.4796 113.385 53.3955L115.002 54.5733ZM116.843 53.1198C117.64 52.7591 118.547 52.5696 119.582 52.5696V50.5696C118.298 50.5696 117.104 50.8062 116.018 51.2979L116.843 53.1198ZM119.582 52.5696C120.634 52.5696 121.529 52.7577 122.289 53.1081L123.126 51.2918C122.063 50.8017 120.875 50.5696 119.582 50.5696V52.5696ZM122.293 53.1103C123.068 53.4624 123.649 53.9286 124.069 54.4981L125.678 53.3108C125.033 52.4363 124.169 51.7661 123.121 51.2896L122.293 53.1103ZM124.072 54.5024C124.486 55.0573 124.703 55.6787 124.726 56.3959L126.725 56.3314C126.689 55.2138 126.338 54.1958 125.675 53.3066L124.072 54.5024ZM125.726 55.3636H123.595V57.3636H125.726V55.3636ZM129.594 70H128.594V71H129.594V70ZM129.594 51.8182V50.8182H128.594V51.8182H129.594ZM140.567 51.8182H141.567V50.8182H140.567V51.8182ZM140.567 53.7713V54.7713H141.567V53.7713H140.567ZM131.796 53.7713V52.7713H130.796V53.7713H131.796ZM131.796 59.9148H130.796V60.9148H131.796V59.9148ZM139.999 59.9148H140.999V58.9148H139.999V59.9148ZM139.999 61.8679V62.8679H140.999V61.8679H139.999ZM131.796 61.8679V60.8679H130.796V61.8679H131.796ZM131.796 68.0469H130.796V69.0469H131.796V68.0469ZM140.709 68.0469H141.709V67.0469H140.709V68.0469ZM140.709 70V71H141.709V70H140.709ZM130.594 70V51.8182H128.594V70H130.594ZM129.594 52.8182H140.567V50.8182H129.594V52.8182ZM139.567 51.8182V53.7713H141.567V51.8182H139.567ZM140.567 52.7713H131.796V54.7713H140.567V52.7713ZM130.796 53.7713V59.9148H132.796V53.7713H130.796ZM131.796 60.9148H139.999V58.9148H131.796V60.9148ZM138.999 59.9148V61.8679H140.999V59.9148H138.999ZM139.999 60.8679H131.796V62.8679H139.999V60.8679ZM130.796 61.8679V68.0469H132.796V61.8679H130.796ZM131.796 69.0469H140.709V67.0469H131.796V69.0469ZM139.709 68.0469V70H141.709V68.0469H139.709ZM140.709 69H129.594V71H140.709V69Z" fill="#31326F" fill-opacity="0.79"/>
</svg>
